<?xml version="1.0" encoding="utf-8"?>
<!-- Generator: Adobe Illustrator 19.2.1, SVG Export Plug-In . SVG Version: 6.00 Build 0)  -->
<svg version="1.1" id="Layer_1" xmlns="http://www.w3.org/2000/svg" xmlns:xlink="http://www.w3.org/1999/xlink" x="0px" y="0px"
	 viewBox="0 0 338.2 257.2" style="enable-background:new 0 0 338.2 257.2;" xml:space="preserve">
<style type="text/css">
	.st0{fill:#58C4D9;}
	.st1{fill:#56C4D8;}
	.st2{fill:#333333;}
</style>
<circle class="st0" cx="265.6" cy="105.1" r="6.6"/>
<g>
	<path class="st1" d="M132.8,235.4c-61.6,0-111.7-48.2-111.7-107.5c0-59.3,50.1-107.5,111.7-107.5v5.1
		c-58.8,0-106.6,45.9-106.6,102.4s47.8,102.4,106.6,102.4V235.4z"/>
</g>
<g>
	<path class="st1" d="M131.8,190.9c-36,0-65.2-28.2-65.2-62.8c0-34.6,29.3-62.8,65.2-62.8v5.1c-33.1,0-60.1,25.9-60.1,57.7
		c0,31.8,27,57.7,60.1,57.7V190.9z"/>
</g>
<g>
	<path class="st1" d="M132.7,212.8c-48.9,0-88.7-38.3-88.7-85.3c0-47,39.8-85.3,88.7-85.3v5.1c-46.1,0-83.5,36-83.5,80.2
		c0,44.2,37.5,80.2,83.5,80.2V212.8z"/>
</g>
<circle class="st0" cx="129.6" cy="233.3" r="8.3"/>
<circle class="st0" cx="129.9" cy="209.9" r="8.3"/>
<ellipse transform="matrix(0.662 -0.7495 0.7495 0.662 -29.2704 77.028)" class="st0" cx="70.8" cy="71" rx="8.3" ry="8.3"/>
<ellipse transform="matrix(0.7141 -0.7001 0.7001 0.7141 -108.7904 102.2358)" class="st0" cx="70.8" cy="184.3" rx="8.3" ry="8.3"/>
<circle class="st0" cx="129.9" cy="188.1" r="8.3"/>
<circle class="st0" cx="24.2" cy="126.9" r="8.3"/>
<circle class="st0" cx="47.3" cy="126.9" r="8.3"/>
<circle class="st0" cx="129.9" cy="67.9" r="8.3"/>
<circle class="st0" cx="129.9" cy="44.7" r="8.3"/>
<circle class="st0" cx="129.9" cy="23.6" r="8.3"/>
<rect x="127.3" y="210.6" class="st0" width="5.1" height="22.2"/>
<rect x="127.3" y="44.2" class="st0" width="5.1" height="22.2"/>
<g>
	<path class="st2" d="M116.2,149.9c-3.9-4-5.9-9.5-5.9-16.4v-33.4h9.9v33.5c0,4.3,1.2,7.6,3.6,9.9c2.4,2.3,5.7,3.4,9.8,3.4
		c4.1,0,7.3-1.1,9.7-3.4c2.4-2.3,3.6-5.6,3.6-9.9v-33.5h9.9v33.4c0,6.9-2,12.3-5.9,16.4c-3.9,4-9.7,6.1-17.4,6.1
		C125.9,155.9,120.1,153.9,116.2,149.9z"/>
	<path class="st2" d="M165.9,100.1h22.8c6,0,10.7,1.5,14,4.5s4.9,7.3,4.9,12.9c0,4-1,7.4-3,10.2c-2,2.8-4.8,4.8-8.4,6l11.1,21h-10.2
		l-10.5-20h-10.8v20h-9.9V100.1z M186.9,126.5c3.2,0,5.8-0.8,7.8-2.3c2-1.5,3-3.8,3-6.8c0-6.1-3.6-9.1-10.8-9.1h-11.1v18.2H186.9z"
		/>
	<path class="st2" d="M221.6,155c-3.2-0.6-5.7-1.4-7.8-2.4v-8.5c2.6,1.2,5.3,2.2,8.2,2.8s5.7,0.9,8.4,0.9c3.5,0,6.1-0.7,8-2
		c1.8-1.3,2.7-3.1,2.7-5.4c0-1.6-0.4-3-1.3-4c-0.8-1.1-2.1-2-3.7-2.8c-1.6-0.8-4.1-1.9-7.4-3.2c-5.1-2.1-8.8-4.4-11.1-7
		c-2.3-2.6-3.4-5.7-3.4-9.5c0-3,0.8-5.6,2.4-7.9c1.6-2.3,3.9-4.1,6.8-5.3c2.9-1.3,6.3-1.9,10.1-1.9c3.1,0,5.9,0.2,8.3,0.7
		c2.4,0.5,4.8,1.3,7.1,2.3v8.3c-4.5-2.2-9.1-3.3-13.7-3.3c-3.3,0-5.9,0.6-7.7,1.8c-1.8,1.2-2.7,3-2.7,5.2c0,1.6,0.4,2.9,1.3,3.9
		c0.8,1,1.9,1.9,3.3,2.6c1.4,0.7,3.9,1.8,7.5,3.3c3.6,1.5,6.5,3,8.6,4.5c2.1,1.5,3.7,3.2,4.8,5.1c1.1,2,1.6,4.3,1.6,7.1
		c0,4.8-1.7,8.6-5.2,11.3c-3.5,2.7-8.6,4-15.5,4C228,155.9,224.8,155.6,221.6,155z"/>
	<path class="st2" d="M260.2,117.2h10v37.5h-10V117.2z"/>
	<path class="st2" d="M280.2,100.1h21.9c6,0,10.8,1.6,14.4,4.8c3.6,3.2,5.4,7.5,5.4,13c0,5.7-1.8,10.1-5.4,13.1
		c-3.6,3-8.4,4.5-14.5,4.5h-11.9v19.2h-9.9V100.1z M300.9,127.3c7.4,0,11.2-3.1,11.2-9.4c0-6.4-3.7-9.6-11.2-9.6h-10.7v19H300.9z"/>
</g>
</svg>
